# xmcd
#
# Track frame offsets:
#	150
#	15614
#	30024
#	48604
#	63956
#	82835
#	101501
#	113555
#	130014
#	144204
#	159668
#	174078
#	192658
#	208010
#	226889
#	245555
#	257609
#	274068
#
# Disc length: 3843
#
# Revision: 3
# Processed by: cddbd v1.5.2PL0 Copyright (c) Steve Scherf et al.
# Submitted via: kJams Pro (development) 1.0patch45.20
#
DISCID=e10f0112
DTITLE=Various Artist - NSC 3052
DYEAR=2005
DGENRE=Country
TTITLE0=Terri Clark - Girls Lie Too
TTITLE1=Trace Adkins - Rough And Ready
TTITLE2=Martina McBride - How Far
TTITLE3=Phil Vasser - In A Real Love
TTITLE4=Jimmy Wayne - You Are
TTITLE5=Julie Roberts - Break Down Here
TTITLE6=Craig Morgan - Look At Us
TTITLE7=Jenkins - Blame It On Mama
TTITLE8=Trent Willmon - Beer Man
TTITLE9=Terri Clark - Vocals - Girls Lie Too
TTITLE10=Trace Adkins - Vocals - Rough And Ready
TTITLE11=Martina McBride - Vocals - How Far 
TTITLE12=Phil Vasser - Vocals - In A Real Love
TTITLE13=Jimmy Wayne - Vocals - You Are
TTITLE14=Julie Roberts - Vocals - Break Down Here
TTITLE15=Craig Morgan - Vocals - Look At Us
TTITLE16=Jenkins - Vocals - Blame It On Mama
TTITLE17=Trent Willmon - Vocals - Beer Man
EXTD=
EXTT0=
EXTT1=
EXTT2=
EXTT3=
EXTT4=
EXTT5=
EXTT6=
EXTT7=
EXTT8=
EXTT9=
EXTT10=
EXTT11=
EXTT12=
EXTT13=
EXTT14=
EXTT15=
EXTT16=
EXTT17=
PLAYORDER=
